<svg xmlns="http://www.w3.org/2000/svg" xmlns:xlink="http://www.w3.org/1999/xlink" width="99.848" height="22.341" viewBox="0 0 99.848 22.341">
  <defs>
    <clipPath id="clip-path">
      <path id="Path_344" data-name="Path 344" d="M0-42.1H99.848V-64.44H0Z" transform="translate(0 64.44)" fill="none"/>
    </clipPath>
  </defs>
  <g id="Group_202" data-name="Group 202" transform="translate(0 64.44)">
    <g id="Group_186" data-name="Group 186" transform="translate(0 -64.44)" clip-path="url(#clip-path)">
      <g id="Group_180" data-name="Group 180" transform="translate(0.003 0)">
        <path id="Path_338" data-name="Path 338" d="M-15.381-12.817a4.4,4.4,0,0,1-.6,1.679,3.832,3.832,0,0,1-.487.615,3.169,3.169,0,0,1-.68.528,3.814,3.814,0,0,1-.916.377,4.5,4.5,0,0,1-1.2.145,3.915,3.915,0,0,1-3.229-1.3,5.651,5.651,0,0,1-1.053-3.654,7.41,7.41,0,0,1,.294-2.163,4.72,4.72,0,0,1,.845-1.635,3.7,3.7,0,0,1,1.346-1.035,4.293,4.293,0,0,1,1.8-.362,4.569,4.569,0,0,1,1.174.138,3.76,3.76,0,0,1,.917.369,3.241,3.241,0,0,1,.687.521A3.905,3.905,0,0,1-16-18a3.858,3.858,0,0,1,.6,1.621l-2.363.318a2.9,2.9,0,0,0-.258-.868,1.929,1.929,0,0,0-.451-.6,1.134,1.134,0,0,0-.795-.268q-1.747,0-1.747,3.285a5.331,5.331,0,0,0,.422,2.431,1.4,1.4,0,0,0,1.325.781,1.09,1.09,0,0,0,.787-.275,2.073,2.073,0,0,0,.444-.608,3.828,3.828,0,0,0,.258-.9Z" transform="translate(23.543 19.618)" fill="#58c2eb"/>
      </g>
      <g id="Group_181" data-name="Group 181" transform="translate(8.753 0)">
        <path id="Path_339" data-name="Path 339" d="M-14.814-13.634a2.95,2.95,0,0,1-.329,1.483,2.32,2.32,0,0,1-.881.883,3.785,3.785,0,0,1-1.267.427,9.347,9.347,0,0,1-1.489.116,5.617,5.617,0,0,1-1.167-.109,4.184,4.184,0,0,1-.909-.3,3,3,0,0,1-.687-.434,3.9,3.9,0,0,1-.487-.492,3.2,3.2,0,0,1-.645-1.332l2.162-.42a1.8,1.8,0,0,0,.329.68,2.068,2.068,0,0,0,.551.456,1.851,1.851,0,0,0,.952.21,3.8,3.8,0,0,0,.5-.036,1.628,1.628,0,0,0,.508-.152,1.016,1.016,0,0,0,.387-.326.91.91,0,0,0,.15-.543.88.88,0,0,0-.38-.753,3.794,3.794,0,0,0-.945-.477q-.566-.2-1.225-.405a5.684,5.684,0,0,1-1.224-.536,3.09,3.09,0,0,1-.945-.854,2.309,2.309,0,0,1-.38-1.389,3.054,3.054,0,0,1,.294-1.418,2.417,2.417,0,0,1,.795-.9,3.21,3.21,0,0,1,1.16-.478,6.866,6.866,0,0,1,1.4-.137,6.055,6.055,0,0,1,1.131.109,4.162,4.162,0,0,1,1.081.362,3.277,3.277,0,0,1,.909.673,2.682,2.682,0,0,1,.6,1.028l-2.134.593a1.358,1.358,0,0,0-.251-.456,1.544,1.544,0,0,0-.379-.326,1.6,1.6,0,0,0-.458-.188,2.1,2.1,0,0,0-.487-.058,3.3,3.3,0,0,0-.466.036,1.55,1.55,0,0,0-.458.137.972.972,0,0,0-.351.289.79.79,0,0,0-.143.492.825.825,0,0,0,.379.73,3.875,3.875,0,0,0,.96.441q.58.188,1.246.376a5.141,5.141,0,0,1,1.246.536,2.945,2.945,0,0,1,.959.926,2.758,2.758,0,0,1,.38,1.534" transform="translate(22.675 20.87)" fill="#58c2eb"/>
      </g>
      <g id="Group_182" data-name="Group 182" transform="translate(17.931 0.246)">
        <path id="Path_340" data-name="Path 340" d="M-13.681-13.035a2.549,2.549,0,0,1-.816,2.012,3.315,3.315,0,0,1-2.277.724h-4.167v-9.652h3.766a7.538,7.538,0,0,1,1.188.094,3.093,3.093,0,0,1,1.045.355,2.031,2.031,0,0,1,.737.716,2.231,2.231,0,0,1,.279,1.179,2.486,2.486,0,0,1-.408,1.454,2.085,2.085,0,0,1-1.4.774,2.148,2.148,0,0,1,1.561.753,2.544,2.544,0,0,1,.487,1.592M-16.187-17.2a.829.829,0,0,0-.329-.767,2.1,2.1,0,0,0-1.06-.2h-1.131v2.04h1.1a1.783,1.783,0,0,0,1.074-.26.952.952,0,0,0,.344-.81m.143,3.965a.958.958,0,0,0-.372-.883,1.737,1.737,0,0,0-.931-.232h-1.36v2.272h1.188a1.829,1.829,0,0,0,1.124-.275,1.054,1.054,0,0,0,.351-.883" transform="translate(20.941 19.952)" fill="#58c2eb"/>
      </g>
      <g id="Group_183" data-name="Group 183" transform="translate(26.623 0.246)">
        <path id="Path_341" data-name="Path 341" d="M-14.571-8.917a5.283,5.283,0,0,1-1.131,3.7A4.134,4.134,0,0,1-18.895-4H-22.3v-9.652H-19.2a7.2,7.2,0,0,1,2.091.268,3.381,3.381,0,0,1,1.439.839,3.428,3.428,0,0,1,.83,1.469,7.673,7.673,0,0,1,.265,2.156m-2.463.087a4.059,4.059,0,0,0-.515-2.323,1.828,1.828,0,0,0-1.59-.716h-.931v6.092h.931a1.8,1.8,0,0,0,1.6-.738,4.2,4.2,0,0,0,.5-2.316" transform="translate(22.303 13.649)" fill="#58c2eb"/>
      </g>
      <g id="Group_184" data-name="Group 184" transform="translate(0 12.269)">
        <path id="Path_342" data-name="Path 342" d="M-13.168-12.926a4.2,4.2,0,0,1-.458,1.606,3.243,3.243,0,0,1-.4.594,2.525,2.525,0,0,1-.587.506,3.245,3.245,0,0,1-.8.355,3.715,3.715,0,0,1-1.06.137,3.191,3.191,0,0,1-2.771-1.259,6.061,6.061,0,0,1-.909-3.589,6.648,6.648,0,0,1,.952-3.849,3.115,3.115,0,0,1,2.714-1.36,3.5,3.5,0,0,1,1.024.138,3.1,3.1,0,0,1,.795.362,2.773,2.773,0,0,1,.587.507,3.066,3.066,0,0,1,.4.586,4.367,4.367,0,0,1,.473,1.592l-1.174.13a3.5,3.5,0,0,0-.3-1.187,2.345,2.345,0,0,0-.63-.817,1.743,1.743,0,0,0-1.174-.369,1.954,1.954,0,0,0-1.8,1.056,6.393,6.393,0,0,0-.608,3.126q0,3.994,2.42,3.994a1.8,1.8,0,0,0,1.2-.369,2.422,2.422,0,0,0,.651-.832,3.242,3.242,0,0,0,.3-1.216Z" transform="translate(20.156 19.785)" fill="#4e5055"/>
      </g>
      <g id="Group_185" data-name="Group 185" transform="translate(8.649 12.472)">
        <path id="Path_343" data-name="Path 343" d="M-9.471-18.189l-1.89-4.3h-1.976v4.3H-14.5v-9.652H-11.6a7.2,7.2,0,0,1,1.274.109,2.962,2.962,0,0,1,1.053.391,1.953,1.953,0,0,1,.709.789,2.869,2.869,0,0,1,.258,1.3,2.773,2.773,0,0,1-.5,1.7,2.321,2.321,0,0,1-1.418.875l2.091,4.486Zm-.1-6.989a2.045,2.045,0,0,0-.165-.9,1.166,1.166,0,0,0-.466-.507,1.862,1.862,0,0,0-.7-.224,7.018,7.018,0,0,0-.874-.051h-1.561v3.387h1.561a2.993,2.993,0,0,0,1.661-.369,1.5,1.5,0,0,0,.544-1.339" transform="translate(14.497 27.841)" fill="#4e5055"/>
      </g>
    </g>
    <g id="Group_187" data-name="Group 187" transform="translate(16.525 -51.968)">
      <path id="Path_345" data-name="Path 345" d="M0,0V9.652H5.842V8.668H1.16V5.181H4.682V4.2H1.16V.984H5.513V0Z" fill="#4e5055"/>
    </g>
    <g id="Group_189" data-name="Group 189" transform="translate(0 -64.44)" clip-path="url(#clip-path)">
      <g id="Group_188" data-name="Group 188" transform="translate(23.226 12.472)">
        <path id="Path_346" data-name="Path 346" d="M-11.306-18.189l-.773-2.764h-3.265l-.759,2.764h-1.2l2.864-9.652h1.518l2.864,9.652Zm-2.033-7.351a3.785,3.785,0,0,1-.114-.4q-.058-.239-.115-.441-.057-.245-.143-.507-.086.261-.143.507-.057.2-.129.449l-.1.391-1.017,3.6h2.778Z" transform="translate(17.306 27.841)" fill="#4e5055"/>
      </g>
    </g>
    <g id="Group_190" data-name="Group 190" transform="translate(29.827 -51.968)">
      <path id="Path_348" data-name="Path 348" d="M0,0V.984H2.706V9.652h1.16V.984H6.587V0Z" fill="#4e5055"/>
    </g>
    <path id="Path_349" data-name="Path 349" d="M108.377-18.815h1.16v-9.652h-1.16Z" transform="translate(-70.803 -23.501)" fill="#4e5055"/>
    <g id="Group_192" data-name="Group 192" transform="translate(0 -64.44)" clip-path="url(#clip-path)">
      <g id="Group_191" data-name="Group 191" transform="translate(39.907 12.472)">
        <path id="Path_350" data-name="Path 350" d="M-7.744-18.189H-8.99l-2.864-9.652h1.231l1.99,6.946a6.018,6.018,0,0,1,.179.76q.064.384.122.76.071-.376.157-.76t.2-.76l1.933-6.946h1.174Z" transform="translate(11.854 27.841)" fill="#4e5055"/>
      </g>
    </g>
    <g id="Group_193" data-name="Group 193" transform="translate(47.883 -51.968)">
      <path id="Path_352" data-name="Path 352" d="M0,0V9.652H5.842V8.668H1.16V5.181H4.682V4.2H1.16V.984H5.513V0Z" fill="#4e5055"/>
    </g>
    <g id="Group_195" data-name="Group 195" transform="translate(0 -64.44)" clip-path="url(#clip-path)">
      <g id="Group_194" data-name="Group 194" transform="translate(57.621 12.269)">
        <path id="Path_353" data-name="Path 353" d="M-12.52-13.826a2.959,2.959,0,0,1-.251,1.288,2.192,2.192,0,0,1-.687.839,2.88,2.88,0,0,1-1.024.463,5.257,5.257,0,0,1-1.26.145A3.629,3.629,0,0,1-18-11.728a3.464,3.464,0,0,1-1.16-2.055l1.131-.362a2.959,2.959,0,0,0,.709,1.52,2.128,2.128,0,0,0,1.611.55A3.027,3.027,0,0,0-15-12.162a1.947,1.947,0,0,0,.645-.282,1.577,1.577,0,0,0,.466-.492,1.364,1.364,0,0,0,.179-.717,1.44,1.44,0,0,0-.2-.781,2.012,2.012,0,0,0-.5-.543,3.117,3.117,0,0,0-.666-.376q-.365-.152-.694-.3-.773-.332-1.389-.666A3.151,3.151,0,0,1-18.19-17.2a2.419,2.419,0,0,1-.379-.666,2.517,2.517,0,0,1-.136-.883,2.379,2.379,0,0,1,.251-1.143,2.107,2.107,0,0,1,.659-.745,2.712,2.712,0,0,1,.938-.405,4.742,4.742,0,0,1,1.074-.123,3.128,3.128,0,0,1,2.1.673,3.218,3.218,0,0,1,1.046,1.744l-1.146.3a2.579,2.579,0,0,0-.7-1.259,1.891,1.891,0,0,0-1.36-.477,2.687,2.687,0,0,0-.63.072,1.478,1.478,0,0,0-.53.239,1.15,1.15,0,0,0-.358.427,1.429,1.429,0,0,0-.129.637,1.28,1.28,0,0,0,.215.745,2.26,2.26,0,0,0,.53.543,3.512,3.512,0,0,0,.68.391q.366.159.651.289.373.174.73.318A6.711,6.711,0,0,1-14-16.2a4.344,4.344,0,0,1,.594.383,2.231,2.231,0,0,1,.473.5,2.288,2.288,0,0,1,.308.651,2.964,2.964,0,0,1,.107.839" transform="translate(19.164 21.163)" fill="#4e5055"/>
      </g>
    </g>
    <g id="Group_196" data-name="Group 196" transform="translate(64.766 -51.968)">
      <path id="Path_355" data-name="Path 355" d="M0,0V.984H2.706V9.652h1.16V.984H6.587V0Z" fill="#4e5055"/>
    </g>
    <g id="Group_199" data-name="Group 199" transform="translate(0 -64.44)" clip-path="url(#clip-path)">
      <g id="Group_197" data-name="Group 197" transform="translate(72.312 12.486)">
        <path id="Path_356" data-name="Path 356" d="M-12.223-12.026a5.7,5.7,0,0,1-.172,1.469,2.592,2.592,0,0,1-.559,1.078,2.471,2.471,0,0,1-1.017.666,4.47,4.47,0,0,1-1.532.232A4.236,4.236,0,0,1-17-8.814a2.427,2.427,0,0,1-.988-.666,2.645,2.645,0,0,1-.552-1.078,5.715,5.715,0,0,1-.172-1.469v-6.382h1.16V-12.2a8.08,8.08,0,0,0,.065,1.056,2.152,2.152,0,0,0,.279.847,1.5,1.5,0,0,0,.63.564,2.489,2.489,0,0,0,1.117.21,2.477,2.477,0,0,0,1.1-.2,1.5,1.5,0,0,0,.63-.564,2.156,2.156,0,0,0,.287-.861,8.5,8.5,0,0,0,.064-1.078v-6.179h1.16Z" transform="translate(18.71 18.408)" fill="#4e5055"/>
      </g>
      <g id="Group_198" data-name="Group 198" transform="translate(80.975 12.472)">
        <path id="Path_357" data-name="Path 357" d="M-12.736-8.7a10.611,10.611,0,0,1-.215,2.3,3.637,3.637,0,0,1-.723,1.563,2.926,2.926,0,0,1-1.36.89,6.8,6.8,0,0,1-2.112.282H-19.5v-9.652h2.406a6.067,6.067,0,0,1,1.99.289,3.2,3.2,0,0,1,1.353.868,3.557,3.557,0,0,1,.766,1.447A7.483,7.483,0,0,1-12.736-8.7M-14-8.583a6.709,6.709,0,0,0-.193-1.729,2.925,2.925,0,0,0-.58-1.165,2.228,2.228,0,0,0-.959-.651,3.95,3.95,0,0,0-1.317-.2h-1.289v7.684h.773a6.743,6.743,0,0,0,1.69-.181,2.239,2.239,0,0,0,1.1-.629,2.634,2.634,0,0,0,.594-1.209A8.562,8.562,0,0,0-14-8.583" transform="translate(19.495 13.315)" fill="#4e5055"/>
      </g>
    </g>
    <path id="Path_359" data-name="Path 359" d="M258.138-18.815H259.3v-9.652h-1.159Z" transform="translate(-168.643 -23.501)" fill="#4e5055"/>
    <g id="Group_201" data-name="Group 201" transform="translate(0 -64.44)" clip-path="url(#clip-path)">
      <g id="Group_200" data-name="Group 200" transform="translate(92.359 12.269)">
        <path id="Path_360" data-name="Path 360" d="M-14.112-9.435a8,8,0,0,1-.258,2.113,4.8,4.8,0,0,1-.738,1.592,3.23,3.23,0,0,1-1.181,1,3.47,3.47,0,0,1-1.561.348,3.456,3.456,0,0,1-1.568-.348,3.3,3.3,0,0,1-1.181-1,4.7,4.7,0,0,1-.745-1.585A7.848,7.848,0,0,1-21.6-9.406a7.912,7.912,0,0,1,.258-2.105A4.7,4.7,0,0,1-20.6-13.1a3.309,3.309,0,0,1,1.181-1,3.488,3.488,0,0,1,1.582-.347,3.484,3.484,0,0,1,1.554.34,3.246,3.246,0,0,1,1.182.991,4.622,4.622,0,0,1,.737,1.577,8.04,8.04,0,0,1,.251,2.1m-1.26.029a5.845,5.845,0,0,0-.651-3.024A2.034,2.034,0,0,0-17.85-13.5a2.039,2.039,0,0,0-1.861,1.049,5.988,5.988,0,0,0-.63,3.046A5.854,5.854,0,0,0-19.7-6.389,2.042,2.042,0,0,0-17.85-5.325a2.031,2.031,0,0,0,1.84-1.049,5.9,5.9,0,0,0,.637-3.032" transform="translate(21.601 14.442)" fill="#4e5055"/>
      </g>
    </g>
  </g>
</svg>
